<?xml version="1.0" encoding="iso-8859-1"?>
<!-- Generator: Adobe Illustrator 26.0.1, SVG Export Plug-In . SVG Version: 6.00 Build 0)  -->
<svg version="1.1" id="Layer_1" xmlns="http://www.w3.org/2000/svg" xmlns:xlink="http://www.w3.org/1999/xlink" x="0px" y="0px"
	 viewBox="0 0 500 500" style="enable-background:new 0 0 500 500;" xml:space="preserve">
<g id="watermark_1_" style="display:none;">
	<g style="display:inline;">
		<g id="watermark" style="opacity:0.61;">
			<g>
				<g>
					<g>
						<g>
							<polygon style="fill:#FFFFFF;" points="213.765,461.172 208.204,474.017 205.268,474.017 199.726,461.172 202.938,461.172 
								206.846,470.347 210.81,461.172 							"/>
						</g>
						<g>
							<path style="fill:#FFFFFF;" d="M223.507,469.741h-7.469c0.275,1.23,1.321,1.982,2.826,1.982c1.046,0,1.798-0.312,2.477-0.954
								l1.523,1.651c-0.917,1.046-2.294,1.597-4.074,1.597c-3.413,0-5.634-2.147-5.634-5.083c0-2.954,2.257-5.083,5.267-5.083
								c2.899,0,5.138,1.945,5.138,5.12C223.562,469.191,223.526,469.503,223.507,469.741 M216.002,468.071h4.863
								c-0.202-1.248-1.138-2.055-2.422-2.055C217.139,466.016,216.204,466.805,216.002,468.071"/>
						</g>
						<g>
							<path style="fill:#FFFFFF;" d="M224.735,468.934c0-2.973,2.294-5.083,5.505-5.083c2.074,0,3.707,0.899,4.423,2.514
								l-2.22,1.193c-0.532-0.936-1.321-1.358-2.221-1.358c-1.45,0-2.587,1.009-2.587,2.734c0,1.725,1.138,2.734,2.587,2.734
								c0.899,0,1.688-0.404,2.221-1.358l2.22,1.211c-0.716,1.578-2.349,2.495-4.423,2.495
								C227.029,474.017,224.735,471.907,224.735,468.934"/>
						</g>
						<g>
							<path style="fill:#FFFFFF;" d="M242.828,473.393c-0.587,0.422-1.45,0.624-2.331,0.624c-2.33,0-3.688-1.193-3.688-3.542
								v-4.055h-1.523v-2.202h1.523v-2.404h2.863v2.404h2.459v2.202h-2.459v4.019c0,0.844,0.458,1.303,1.229,1.303
								c0.422,0,0.844-0.128,1.156-0.367L242.828,473.393z"/>
						</g>
					</g>
					<g>
						<path style="fill:#FFFFFF;" d="M262.474,463.997v2.643c-0.238-0.018-0.422-0.037-0.642-0.037
							c-1.578,0-2.624,0.862-2.624,2.753v4.661h-2.863v-9.873h2.734v1.303C259.776,464.493,260.951,463.997,262.474,463.997"/>
					</g>
					<g>
						<path style="fill:#FFFFFF;" d="M263.299,472.53l1.009-2.239c1.083,0.789,2.697,1.339,4.239,1.339
							c1.762,0,2.477-0.587,2.477-1.376c0-2.404-7.469-0.752-7.469-5.524c0-2.184,1.762-4,5.413-4c1.615,0,3.267,0.385,4.459,1.138
							l-0.918,2.257c-1.193-0.679-2.422-1.009-3.56-1.009c-1.761,0-2.44,0.66-2.44,1.468c0,2.367,7.468,0.734,7.468,5.45
							c0,2.147-1.78,3.982-5.45,3.982C266.492,474.017,264.437,473.411,263.299,472.53"/>
					</g>
					<g>
						<path style="fill:#FFFFFF;" d="M285.428,469.741h-7.469c0.275,1.23,1.321,1.982,2.826,1.982c1.046,0,1.798-0.312,2.477-0.954
							l1.523,1.651c-0.918,1.046-2.294,1.597-4.074,1.597c-3.413,0-5.634-2.147-5.634-5.083c0-2.954,2.257-5.083,5.267-5.083
							c2.9,0,5.138,1.945,5.138,5.12C285.484,469.191,285.447,469.503,285.428,469.741 M277.923,468.071h4.863
							c-0.202-1.248-1.138-2.055-2.422-2.055C279.061,466.016,278.125,466.805,277.923,468.071"/>
					</g>
					<g>
						<path style="fill:#FFFFFF;" d="M297.007,469.741h-7.469c0.275,1.23,1.321,1.982,2.826,1.982c1.046,0,1.798-0.312,2.477-0.954
							l1.523,1.651c-0.918,1.046-2.294,1.597-4.074,1.597c-3.413,0-5.634-2.147-5.634-5.083c0-2.954,2.257-5.083,5.267-5.083
							c2.899,0,5.138,1.945,5.138,5.12C297.062,469.191,297.025,469.503,297.007,469.741 M289.501,468.071h4.863
							c-0.202-1.248-1.138-2.055-2.422-2.055C290.639,466.016,289.703,466.805,289.501,468.071"/>
					</g>
					<g>
						<polygon style="fill:#FFFFFF;" points="303.208,470.145 301.831,471.503 301.831,474.017 298.969,474.017 298.969,460.401 
							301.831,460.401 301.831,468.108 306.016,464.144 309.429,464.144 305.318,468.328 309.796,474.017 306.327,474.017 						"/>
					</g>
					<g>
						<path style="fill:#FFFFFF;" d="M256.601,475.359L256.601,475.359l-2.86-2.86c-0.435,0.508-0.953,0.943-1.534,1.284
							c-0.092,0.069-0.186,0.136-0.283,0.199l3.027,3.027c0.456,0.456,1.195,0.456,1.65,0
							C257.057,476.554,257.057,475.815,256.601,475.359"/>
					</g>
					<g>
						<path style="fill:#FFFFFF;" d="M249.984,463.244c0.221-0.173,0.495-0.281,0.797-0.281c0.042,0,0.083,0.002,0.124,0.006
							c-0.214-0.156-0.478-0.249-0.764-0.249c-0.395,0-0.744,0.18-0.981,0.458c-0.051,0-0.1,0.006-0.151,0.008
							c0.039-0.077,0.064-0.162,0.064-0.255c0-0.234-0.143-0.434-0.346-0.519c0.087,0.126,0.138,0.279,0.138,0.445
							c0,0.122-0.031,0.237-0.081,0.341c-2.811,0.201-5.03,2.539-5.03,5.4c0,2.993,2.426,5.42,5.42,5.42
							c2.993,0,5.42-2.426,5.42-5.42C254.595,465.879,252.593,463.635,249.984,463.244 M247.983,464.656
							c0.435,0,0.844,0.112,1.199,0.309c0.374-0.245,0.82-0.387,1.299-0.387c0.711,0,1.348,0.312,1.784,0.806
							c-0.435-0.379-1.004-0.61-1.627-0.61c-0.449,0-0.87,0.12-1.234,0.329c-0.079,0.046-0.156,0.096-0.229,0.15
							c-0.065-0.048-0.133-0.093-0.204-0.134c-0.369-0.219-0.8-0.344-1.26-0.344c-0.3,0-0.588,0.054-0.854,0.152
							C247.196,464.754,247.578,464.656,247.983,464.656 M251.772,469.098c0.115,0.305,0.181,0.634,0.181,0.979
							c0,1.534-1.244,2.777-2.778,2.777c-1.534,0-2.777-1.243-2.777-2.777c0-0.345,0.066-0.674,0.181-0.979
							c-0.62-0.382-1.035-1.064-1.035-1.846c0-1.197,0.971-2.168,2.168-2.168c0.565,0,1.078,0.218,1.463,0.572
							c0.386-0.354,0.899-0.572,1.464-0.572c1.197,0,2.168,0.971,2.168,2.168C252.807,468.034,252.392,468.716,251.772,469.098"/>
					</g>
					<g>
						<path style="fill:#FFFFFF;" d="M251.666,467.061c0,0.497-0.404,0.901-0.901,0.901c-0.497,0-0.901-0.404-0.901-0.901
							s0.404-0.901,0.901-0.901c0.101,0,0.197,0.017,0.287,0.047c-0.03,0.062-0.045,0.132-0.045,0.204
							c0,0.273,0.221,0.494,0.494,0.494c0.05,0,0.099-0.008,0.146-0.022C251.66,466.941,251.666,467,251.666,467.061"/>
					</g>
					<g>
						<path style="fill:#FFFFFF;" d="M248.255,467.061c0,0.376-0.305,0.681-0.681,0.681c-0.376,0-0.681-0.305-0.681-0.681
							s0.305-0.681,0.681-0.681c0.076,0,0.149,0.013,0.217,0.035c-0.023,0.047-0.034,0.1-0.034,0.155
							c0,0.206,0.167,0.374,0.374,0.374c0.038,0,0.075-0.006,0.11-0.017C248.25,466.97,248.255,467.015,248.255,467.061"/>
					</g>
					<g>
						<g>
							<g>
								<rect x="242.908" y="467.83" style="fill:#FFFFFF;" width="0.616" height="0.616"/>
							</g>
							<g>
								<rect x="254.827" y="467.83" style="fill:#FFFFFF;" width="0.616" height="0.616"/>
							</g>
							<g>
								<path style="fill:#FFFFFF;" d="M255.205,468.082h-0.14c0-3.248-2.642-5.89-5.89-5.89c-3.248,0-5.89,2.642-5.89,5.89h-0.14
									c0-1.611,0.627-3.125,1.766-4.264c1.139-1.139,2.653-1.766,4.264-1.766c1.611,0,3.125,0.627,4.264,1.766
									C254.578,464.957,255.205,466.471,255.205,468.082"/>
							</g>
						</g>
						<g>
							<rect x="248.868" y="461.814" style="fill:#FFFFFF;" width="0.616" height="0.616"/>
						</g>
						<g>
							<rect x="244.95" y="462.052" style="fill:#FFFFFF;" width="8.45" height="0.14"/>
						</g>
						<g>
							<path style="fill:#FFFFFF;" d="M245.174,462.15c0,0.108-0.088,0.196-0.196,0.196c-0.108,0-0.196-0.088-0.196-0.196
								c0-0.108,0.088-0.196,0.196-0.196C245.086,461.954,245.174,462.042,245.174,462.15"/>
						</g>
						<g>
							<path style="fill:#FFFFFF;" d="M253.596,462.15c0,0.108-0.088,0.196-0.196,0.196c-0.108,0-0.196-0.088-0.196-0.196
								c0-0.108,0.088-0.196,0.196-0.196C253.509,461.954,253.596,462.042,253.596,462.15"/>
						</g>
					</g>
				</g>
				<g>
					<path style="fill:#FFFFFF;" d="M314.356,473.409c0,1.559-2.364,1.559-2.364,0C311.993,471.851,314.356,471.851,314.356,473.409
						z"/>
				</g>
				<g>
					<g>
						<g>
							<path style="fill:#FFFFFF;" d="M161.739,466.549l1.772,6.088l1.855-6.088h2.215l-2.823,8.14h-2.33l-0.837-2.396l-0.722-2.708
								l-0.722,2.708l-0.837,2.396h-2.33l-2.839-8.14h2.231l1.855,6.088l1.756-6.088H161.739z"/>
						</g>
						<g>
							<path style="fill:#FFFFFF;" d="M176.713,466.549l1.772,6.088l1.855-6.088h2.215l-2.823,8.14h-2.33l-0.837-2.396l-0.722-2.708
								l-0.722,2.708l-0.837,2.396h-2.33l-2.839-8.14h2.231l1.855,6.088l1.756-6.088H176.713z"/>
						</g>
						<g>
							<path style="fill:#FFFFFF;" d="M191.687,466.549l1.772,6.088l1.855-6.088h2.215l-2.823,8.14h-2.33l-0.837-2.396l-0.722-2.708
								l-0.722,2.708l-0.837,2.396h-2.33l-2.839-8.14h2.231l1.855,6.088l1.756-6.088H191.687z"/>
						</g>
					</g>
					<g>
						<path style="fill:#FFFFFF;" d="M200.908,473.52c0,1.559-2.364,1.559-2.364,0C198.545,471.962,200.908,471.962,200.908,473.52z
							"/>
					</g>
					<g>
						<path style="fill:#FFFFFF;" d="M322.71,473.409c-0.935,0.919-1.919,1.28-3.117,1.28c-2.346,0-4.3-1.411-4.3-4.282
							s1.953-4.284,4.3-4.284c1.149,0,2.035,0.329,2.921,1.199l-1.264,1.329c-0.476-0.428-1.066-0.64-1.623-0.64
							c-1.346,0-2.33,0.985-2.33,2.396c0,1.542,1.05,2.362,2.297,2.362c0.64,0,1.28-0.18,1.772-0.672L322.71,473.409z"/>
					</g>
					<g>
						<path style="fill:#FFFFFF;" d="M331.805,470.472c0,2.33-1.591,4.217-4.217,4.217c-2.626,0-4.201-1.887-4.201-4.217
							c0-2.314,1.609-4.217,4.185-4.217C330.149,466.255,331.805,468.158,331.805,470.472z M325.389,470.472
							c0,1.231,0.739,2.38,2.199,2.38c1.46,0,2.199-1.149,2.199-2.38c0-1.215-0.854-2.396-2.199-2.396
							C326.144,468.077,325.389,469.258,325.389,470.472z"/>
					</g>
					<g>
						<path style="fill:#FFFFFF;" d="M338.572,474.689v-4.332c0-1.068-0.559-2.035-1.658-2.035c-1.082,0-1.722,0.967-1.722,2.035
							v4.332h-2.003v-8.107h1.855l0.148,0.985c0.426-0.82,1.362-1.116,2.133-1.116c0.969,0,1.937,0.394,2.396,1.51
							c0.723-1.149,1.658-1.478,2.708-1.478c2.297,0,3.43,1.412,3.43,3.84v4.365h-2.003v-4.365c0-1.066-0.442-1.97-1.526-1.97
							c-1.082,0-1.756,0.935-1.756,2.003v4.332H338.572z"/>
					</g>
				</g>
			</g>
		</g>
		<g style="opacity:0.61;">
			<g>
				<g>
					<path style="fill:#FFFFFF;" d="M345.988,431.299c-0.006-1.224-0.959-2.121-2.189-2.14c-0.924-0.014-0.832,0.12-0.834-0.867
						c-0.003-1.097-0.007-2.194,0.003-3.292c0.003-0.379-0.112-0.691-0.362-0.976c-2.342-2.668-4.678-5.342-7.019-8.011
						c-0.12-0.137-0.275-0.244-0.414-0.366c-6.214,0-12.427,0-18.641,0c-0.794,0.293-1.14,0.868-1.138,1.709
						c0.01,3.748,0.004,7.496,0.004,11.243c0,0.556-0.003,0.589-0.55,0.551c-1.497-0.102-2.516,0.986-2.497,2.492
						c0.044,3.476,0.013,6.953,0.014,10.429c0.001,1.58,0.867,2.443,2.45,2.449c0.582,0.002,0.582,0.002,0.582,0.6
						c0,2.219-0.001,4.438,0.001,6.657c0.001,1.192,0.58,1.771,1.768,1.771c8.013,0.001,16.027,0.001,24.04,0
						c1.168,0,1.755-0.583,1.757-1.745c0.002-2.256,0-4.512,0.001-6.768c0-0.512,0.002-0.511,0.52-0.515
						c0.271-0.002,0.541,0.008,0.809-0.058c0.996-0.246,1.69-1.044,1.694-2.069C346.003,438.696,346.005,434.997,345.988,431.299z
						 M317.537,417.162c5.337,0,10.674,0,16.01,0c0.548,0,0.554,0.007,0.554,0.561c0.001,2.243-0.001,4.486,0.001,6.73
						c0.001,0.811,0.249,1.059,1.06,1.059c1.91,0.001,3.821,0,5.731,0.001c0.458,0,0.479,0.021,0.481,0.483
						c0.003,0.887,0.002,1.775,0,2.662c-0.001,0.477-0.024,0.498-0.504,0.499c-3.895,0.001-7.79,0-11.684,0
						c-3.882,0-7.765,0-11.647,0c-0.55,0-0.552-0.001-0.552-0.561c-0.001-3.624-0.001-7.247,0-10.871
						C316.987,417.166,316.991,417.162,317.537,417.162z M340.822,451.579c-3.883,0.001-7.766,0-11.65,0c-3.871,0-7.742,0-11.613,0
						c-0.572,0-0.574-0.002-0.574-0.579c-0.001-1.997-0.001-3.994,0.001-5.991c0-0.464,0.023-0.486,0.478-0.487
						c7.803-0.001,15.607-0.001,23.41,0c0.478,0,0.499,0.02,0.499,0.503c0.002,1.997,0.001,3.994,0,5.991
						C341.375,451.574,341.37,451.579,340.822,451.579z"/>
				</g>
				<g>
					<g>
						<rect x="327.418" y="417.053" style="fill:#FFFFFF;" width="1.757" height="1.054"/>
					</g>
					<g>
						<rect x="325.662" y="418.107" style="fill:#FFFFFF;" width="1.757" height="1.054"/>
					</g>
					<g>
						<rect x="327.418" y="419.161" style="fill:#FFFFFF;" width="1.757" height="1.054"/>
					</g>
					<g>
						<rect x="325.662" y="420.215" style="fill:#FFFFFF;" width="1.757" height="1.054"/>
					</g>
					<g>
						<rect x="327.418" y="421.269" style="fill:#FFFFFF;" width="1.757" height="1.054"/>
					</g>
					<g>
						<rect x="325.662" y="422.323" style="fill:#FFFFFF;" width="1.757" height="1.054"/>
					</g>
					<g>
						<rect x="327.418" y="423.378" style="fill:#FFFFFF;" width="1.757" height="1.054"/>
					</g>
					<g>
						<rect x="325.662" y="424.432" style="fill:#FFFFFF;" width="1.757" height="1.054"/>
					</g>
					<g>
						<rect x="327.418" y="425.486" style="fill:#FFFFFF;" width="1.757" height="1.054"/>
					</g>
					<g>
						<rect x="325.662" y="426.54" style="fill:#FFFFFF;" width="1.757" height="1.054"/>
					</g>
					<g>
						<rect x="327.418" y="427.594" style="fill:#FFFFFF;" width="1.757" height="1.054"/>
					</g>
					<g>
						<rect x="325.662" y="428.648" style="fill:#FFFFFF;" width="1.757" height="1.054"/>
					</g>
				</g>
			</g>
			<g>
				<path style="fill:#FFFFFF;" d="M187.637,431.299c-0.006-1.224-0.959-2.121-2.189-2.14c-0.924-0.014-0.832,0.12-0.834-0.867
					c-0.003-1.097-0.007-2.194,0.003-3.292c0.003-0.379-0.112-0.691-0.362-0.976c-2.342-2.668-4.678-5.342-7.019-8.011
					c-0.12-0.137-0.275-0.244-0.414-0.366c-6.214,0-12.427,0-18.641,0c-0.794,0.293-1.14,0.868-1.138,1.709
					c0.01,3.748,0.004,7.496,0.004,11.243c0,0.556-0.003,0.589-0.55,0.551c-1.497-0.102-2.516,0.986-2.497,2.492
					c0.044,3.476,0.013,6.953,0.014,10.429c0.001,1.58,0.867,2.443,2.45,2.449c0.582,0.002,0.582,0.002,0.582,0.6
					c0,2.219-0.001,4.438,0.001,6.657c0.001,1.192,0.58,1.771,1.768,1.771c8.013,0.001,16.027,0.001,24.04,0
					c1.168,0,1.755-0.583,1.757-1.745c0.002-2.256,0-4.512,0.001-6.768c0-0.512,0.002-0.511,0.52-0.515
					c0.271-0.002,0.541,0.008,0.809-0.058c0.996-0.246,1.69-1.044,1.694-2.069C187.652,438.696,187.655,434.997,187.637,431.299z
					 M159.187,417.162c5.337,0,10.674,0,16.01,0c0.548,0,0.554,0.007,0.554,0.561c0.001,2.243-0.001,4.486,0.001,6.73
					c0.001,0.811,0.249,1.059,1.06,1.059c1.91,0.001,3.821,0,5.731,0.001c0.458,0,0.479,0.021,0.481,0.483
					c0.003,0.887,0.002,1.775,0,2.662c-0.001,0.477-0.024,0.498-0.504,0.499c-3.895,0.001-7.79,0-11.684,0
					c-3.882,0-7.765,0-11.647,0c-0.55,0-0.552-0.001-0.552-0.561c-0.001-3.624-0.001-7.247,0-10.871
					C158.636,417.166,158.64,417.162,159.187,417.162z M182.472,451.579c-3.883,0.001-7.766,0-11.65,0c-3.871,0-7.742,0-11.613,0
					c-0.572,0-0.574-0.002-0.574-0.579c-0.001-1.997-0.001-3.994,0.001-5.991c0-0.464,0.023-0.486,0.478-0.487
					c7.803-0.001,15.607-0.001,23.41,0c0.478,0,0.499,0.02,0.499,0.503c0.002,1.997,0.001,3.994,0,5.991
					C183.024,451.574,183.019,451.579,182.472,451.579z"/>
			</g>
			<g>
				<path style="fill:#FFFFFF;" d="M159.779,440.669v-7.897h2.779c0.375,0,0.726,0.061,1.053,0.182
					c0.327,0.121,0.612,0.292,0.855,0.513c0.242,0.221,0.434,0.483,0.573,0.789c0.14,0.305,0.21,0.642,0.21,1.009
					c0,0.375-0.07,0.715-0.21,1.02c-0.14,0.305-0.331,0.568-0.573,0.789c-0.243,0.221-0.528,0.392-0.855,0.513
					c-0.327,0.121-0.678,0.182-1.053,0.182h-1.29v2.901H159.779z M162.58,436.356c0.39,0,0.684-0.111,0.882-0.331
					c0.199-0.22,0.298-0.474,0.298-0.761c0-0.14-0.024-0.276-0.072-0.408c-0.048-0.132-0.121-0.248-0.221-0.347
					c-0.099-0.099-0.223-0.178-0.37-0.237c-0.147-0.059-0.32-0.089-0.518-0.089h-1.312v2.173H162.58z"/>
				<path style="fill:#FFFFFF;" d="M166.308,432.771h1.731l3.177,5.294h0.088l-0.088-1.522v-3.772h1.478v7.897h-1.566l-3.353-5.592
					h-0.088l0.088,1.522v4.07h-1.467V432.771z"/>
				<path style="fill:#FFFFFF;" d="M177.922,436.334h3.872c0.022,0.089,0.04,0.195,0.055,0.32c0.014,0.125,0.022,0.25,0.022,0.375
					c0,0.507-0.077,0.985-0.231,1.434c-0.154,0.449-0.397,0.849-0.728,1.202c-0.353,0.375-0.776,0.666-1.268,0.871
					c-0.493,0.206-1.055,0.309-1.688,0.309c-0.574,0-1.114-0.103-1.622-0.309c-0.507-0.206-0.948-0.492-1.323-0.86
					c-0.375-0.367-0.673-0.803-0.894-1.307c-0.221-0.504-0.331-1.053-0.331-1.649c0-0.595,0.11-1.145,0.331-1.649
					c0.221-0.504,0.518-0.939,0.894-1.307c0.375-0.367,0.816-0.654,1.323-0.86c0.507-0.206,1.048-0.309,1.622-0.309
					c0.64,0,1.211,0.11,1.715,0.331c0.504,0.221,0.935,0.526,1.296,0.915l-1.025,1.004c-0.258-0.272-0.544-0.48-0.861-0.623
					c-0.316-0.143-0.695-0.215-1.136-0.215c-0.361,0-0.703,0.065-1.026,0.193c-0.324,0.129-0.607,0.311-0.85,0.546
					c-0.242,0.235-0.436,0.52-0.579,0.855c-0.143,0.335-0.215,0.708-0.215,1.119c0,0.412,0.072,0.785,0.215,1.12
					c0.143,0.335,0.338,0.62,0.584,0.855c0.246,0.235,0.531,0.418,0.855,0.546c0.323,0.129,0.669,0.193,1.037,0.193
					c0.419,0,0.773-0.061,1.064-0.182c0.29-0.121,0.538-0.278,0.744-0.469c0.148-0.132,0.275-0.3,0.381-0.502
					c0.106-0.202,0.189-0.428,0.248-0.678h-2.482V436.334z"/>
			</g>
			<g>
				<path style="fill:#FFFFFF;" d="M224.019,431.299c-0.006-1.224-0.959-2.121-2.189-2.14c-0.924-0.014-0.832,0.12-0.834-0.867
					c-0.003-1.097-0.007-2.194,0.003-3.292c0.003-0.379-0.112-0.691-0.362-0.976c-2.342-2.668-4.678-5.342-7.019-8.011
					c-0.12-0.137-0.275-0.244-0.414-0.366c-6.214,0-12.427,0-18.641,0c-0.794,0.293-1.14,0.868-1.138,1.709
					c0.01,3.748,0.004,7.496,0.004,11.243c0,0.556-0.003,0.589-0.55,0.551c-1.497-0.102-2.516,0.986-2.497,2.492
					c0.044,3.476,0.013,6.953,0.014,10.429c0.001,1.58,0.867,2.443,2.45,2.449c0.582,0.002,0.582,0.002,0.582,0.6
					c0,2.219-0.001,4.438,0.001,6.657c0.001,1.192,0.58,1.771,1.768,1.771c8.013,0.001,16.027,0.001,24.04,0
					c1.168,0,1.755-0.583,1.757-1.745c0.002-2.256,0-4.512,0.001-6.768c0-0.512,0.002-0.511,0.52-0.515
					c0.271-0.002,0.541,0.008,0.809-0.058c0.997-0.246,1.69-1.044,1.694-2.069C224.034,438.696,224.036,434.997,224.019,431.299z
					 M195.568,417.162c5.337,0,10.674,0,16.01,0c0.548,0,0.554,0.007,0.554,0.561c0.001,2.243-0.001,4.486,0.001,6.73
					c0.001,0.811,0.249,1.059,1.06,1.059c1.91,0.001,3.821,0,5.731,0.001c0.458,0,0.479,0.021,0.481,0.483
					c0.003,0.887,0.002,1.775,0,2.662c-0.001,0.477-0.024,0.498-0.504,0.499c-3.895,0.001-7.79,0-11.684,0
					c-3.882,0-7.765,0-11.647,0c-0.55,0-0.552-0.001-0.552-0.561c-0.001-3.624-0.001-7.247,0-10.871
					C195.018,417.166,195.022,417.162,195.568,417.162z M218.854,451.579c-3.883,0.001-7.766,0-11.65,0c-3.871,0-7.742,0-11.613,0
					c-0.572,0-0.574-0.002-0.574-0.579c-0.001-1.997-0.001-3.994,0.001-5.991c0-0.464,0.023-0.486,0.478-0.487
					c7.803-0.001,15.607-0.001,23.41,0c0.478,0,0.499,0.02,0.499,0.503c0.002,1.997,0.001,3.994,0,5.991
					C219.406,451.574,219.401,451.579,218.854,451.579z"/>
			</g>
			<g>
				<path style="fill:#FFFFFF;" d="M205.111,432.771h1.699l2.967,7.897h-1.644l-0.651-1.886h-3.044l-0.651,1.886h-1.643
					L205.111,432.771z M206.997,437.415l-0.706-1.974l-0.287-0.96h-0.088l-0.287,0.96l-0.706,1.974H206.997z"/>
				<path style="fill:#FFFFFF;" d="M211.331,434.536c-0.125,0-0.245-0.024-0.359-0.072c-0.114-0.048-0.213-0.114-0.298-0.199
					c-0.084-0.084-0.151-0.182-0.198-0.292c-0.048-0.11-0.072-0.232-0.072-0.364s0.024-0.254,0.072-0.364
					c0.048-0.11,0.114-0.208,0.198-0.292c0.084-0.084,0.184-0.151,0.298-0.198c0.114-0.048,0.233-0.072,0.359-0.072
					c0.257,0,0.478,0.09,0.662,0.27c0.184,0.181,0.276,0.399,0.276,0.656s-0.092,0.476-0.276,0.656
					C211.809,434.446,211.589,434.536,211.331,434.536z M210.615,440.669v-5.404h1.445v5.404H210.615z"/>
			</g>
			<g>
				<path style="fill:#FFFFFF;" d="M261.044,431.299c-0.006-1.224-0.959-2.121-2.189-2.14c-0.924-0.014-0.832,0.12-0.834-0.867
					c-0.003-1.097-0.007-2.194,0.003-3.292c0.003-0.379-0.112-0.691-0.362-0.976c-2.342-2.668-4.678-5.342-7.019-8.011
					c-0.12-0.137-0.275-0.244-0.414-0.366c-6.214,0-12.427,0-18.641,0c-0.794,0.293-1.14,0.868-1.138,1.709
					c0.01,3.748,0.004,7.496,0.004,11.243c0,0.556-0.003,0.589-0.55,0.551c-1.497-0.102-2.516,0.986-2.497,2.492
					c0.044,3.476,0.013,6.953,0.014,10.429c0.001,1.58,0.867,2.443,2.45,2.449c0.582,0.002,0.582,0.002,0.582,0.6
					c0,2.219-0.001,4.438,0.001,6.657c0.001,1.192,0.58,1.771,1.768,1.771c8.013,0.001,16.027,0.001,24.04,0
					c1.168,0,1.755-0.583,1.757-1.745c0.002-2.256,0-4.512,0.001-6.768c0-0.512,0.002-0.511,0.52-0.515
					c0.271-0.002,0.541,0.008,0.809-0.058c0.996-0.246,1.69-1.044,1.694-2.069C261.059,438.696,261.061,434.997,261.044,431.299z
					 M232.593,417.162c5.337,0,10.674,0,16.01,0c0.548,0,0.554,0.007,0.554,0.561c0.001,2.243-0.001,4.486,0.001,6.73
					c0.001,0.811,0.249,1.059,1.06,1.059c1.91,0.001,3.821,0,5.731,0.001c0.458,0,0.479,0.021,0.481,0.483
					c0.003,0.887,0.002,1.775,0,2.662c-0.001,0.477-0.024,0.498-0.504,0.499c-3.895,0.001-7.79,0-11.684,0
					c-3.882,0-7.765,0-11.647,0c-0.55,0-0.552-0.001-0.552-0.561c-0.001-3.624-0.001-7.247,0-10.871
					C232.042,417.166,232.047,417.162,232.593,417.162z M255.878,451.579c-3.883,0.001-7.766,0-11.65,0c-3.871,0-7.742,0-11.613,0
					c-0.572,0-0.574-0.002-0.574-0.579c-0.001-1.997-0.001-3.994,0.001-5.991c0-0.464,0.023-0.486,0.478-0.487
					c7.803-0.001,15.607-0.001,23.41,0c0.478,0,0.499,0.02,0.499,0.503c0.002,1.997,0.001,3.994,0,5.991
					C256.431,451.574,256.426,451.579,255.878,451.579z"/>
			</g>
			<g>
				<path style="fill:#FFFFFF;" d="M236.361,440.845c-0.338,0-0.662-0.048-0.971-0.143c-0.309-0.095-0.592-0.239-0.849-0.43
					c-0.257-0.191-0.481-0.425-0.673-0.7c-0.191-0.276-0.342-0.597-0.452-0.965l1.401-0.551c0.103,0.397,0.283,0.726,0.54,0.987
					c0.257,0.261,0.596,0.392,1.015,0.392c0.154,0,0.303-0.02,0.447-0.061c0.143-0.04,0.272-0.099,0.386-0.176
					s0.204-0.175,0.27-0.292c0.066-0.118,0.099-0.254,0.099-0.408c0-0.147-0.026-0.279-0.077-0.397
					c-0.051-0.117-0.138-0.227-0.259-0.331c-0.121-0.103-0.28-0.202-0.475-0.298c-0.195-0.095-0.435-0.195-0.722-0.298l-0.485-0.176
					c-0.213-0.073-0.429-0.173-0.645-0.298c-0.217-0.125-0.413-0.276-0.59-0.452c-0.177-0.176-0.322-0.384-0.436-0.623
					c-0.114-0.239-0.171-0.509-0.171-0.81c0-0.309,0.06-0.597,0.182-0.866c0.121-0.268,0.294-0.503,0.518-0.706
					c0.224-0.202,0.492-0.36,0.805-0.474s0.66-0.171,1.042-0.171c0.397,0,0.74,0.053,1.031,0.16
					c0.291,0.107,0.537,0.243,0.739,0.408c0.202,0.165,0.366,0.348,0.491,0.546c0.125,0.199,0.217,0.386,0.276,0.563l-1.312,0.551
					c-0.074-0.221-0.208-0.419-0.402-0.596c-0.195-0.176-0.462-0.265-0.8-0.265c-0.324,0-0.592,0.075-0.805,0.226
					c-0.213,0.151-0.32,0.348-0.32,0.59c0,0.235,0.103,0.436,0.309,0.601c0.206,0.165,0.533,0.325,0.982,0.48l0.497,0.165
					c0.316,0.111,0.605,0.237,0.866,0.381c0.261,0.143,0.485,0.314,0.673,0.513c0.187,0.199,0.331,0.425,0.43,0.678
					c0.1,0.254,0.149,0.546,0.149,0.877c0,0.412-0.083,0.767-0.248,1.064c-0.165,0.298-0.377,0.542-0.634,0.734
					c-0.258,0.191-0.548,0.335-0.872,0.43C236.986,440.797,236.67,440.845,236.361,440.845z"/>
				<path style="fill:#FFFFFF;" d="M239.516,432.771h1.61l1.633,4.754l0.287,1.015h0.088l0.309-1.015l1.699-4.754h1.61l-2.879,7.897
					h-1.566L239.516,432.771z"/>
				<path style="fill:#FFFFFF;" d="M251.097,436.334h3.871c0.022,0.089,0.04,0.195,0.055,0.32c0.015,0.125,0.023,0.25,0.023,0.375
					c0,0.507-0.078,0.985-0.232,1.434c-0.154,0.449-0.397,0.849-0.728,1.202c-0.353,0.375-0.775,0.666-1.268,0.871
					c-0.493,0.206-1.055,0.309-1.688,0.309c-0.574,0-1.114-0.103-1.621-0.309c-0.507-0.206-0.949-0.492-1.324-0.86
					c-0.375-0.367-0.673-0.803-0.894-1.307c-0.22-0.504-0.331-1.053-0.331-1.649c0-0.595,0.11-1.145,0.331-1.649
					c0.221-0.504,0.518-0.939,0.894-1.307c0.375-0.367,0.816-0.654,1.324-0.86c0.507-0.206,1.047-0.309,1.621-0.309
					c0.64,0,1.211,0.11,1.715,0.331c0.504,0.221,0.936,0.526,1.296,0.915l-1.026,1.004c-0.257-0.272-0.544-0.48-0.861-0.623
					c-0.316-0.143-0.694-0.215-1.136-0.215c-0.36,0-0.702,0.065-1.026,0.193c-0.323,0.129-0.607,0.311-0.849,0.546
					c-0.243,0.235-0.436,0.52-0.579,0.855c-0.143,0.335-0.215,0.708-0.215,1.119c0,0.412,0.072,0.785,0.215,1.12
					c0.143,0.335,0.338,0.62,0.585,0.855c0.246,0.235,0.531,0.418,0.854,0.546c0.324,0.129,0.669,0.193,1.037,0.193
					c0.419,0,0.774-0.061,1.064-0.182c0.29-0.121,0.539-0.278,0.745-0.469c0.147-0.132,0.274-0.3,0.38-0.502
					c0.107-0.202,0.189-0.428,0.248-0.678h-2.482V436.334z"/>
			</g>
			<g>
				<path style="fill:#FFFFFF;" d="M297.3,431.299c-0.006-1.224-0.959-2.121-2.189-2.14c-0.924-0.014-0.832,0.12-0.834-0.867
					c-0.003-1.097-0.007-2.194,0.003-3.292c0.003-0.379-0.112-0.691-0.362-0.976c-2.342-2.668-4.678-5.342-7.019-8.011
					c-0.12-0.137-0.275-0.244-0.414-0.366c-6.214,0-12.427,0-18.641,0c-0.794,0.293-1.14,0.868-1.138,1.709
					c0.01,3.748,0.004,7.496,0.004,11.243c0,0.556-0.003,0.589-0.55,0.551c-1.497-0.102-2.516,0.986-2.497,2.492
					c0.044,3.476,0.013,6.953,0.014,10.429c0.001,1.58,0.867,2.443,2.45,2.449c0.582,0.002,0.582,0.002,0.582,0.6
					c0,2.219-0.001,4.438,0.001,6.657c0.001,1.192,0.58,1.771,1.768,1.771c8.013,0.001,16.027,0.001,24.04,0
					c1.168,0,1.755-0.583,1.757-1.745c0.002-2.256,0-4.512,0.001-6.768c0-0.512,0.002-0.511,0.52-0.515
					c0.271-0.002,0.541,0.008,0.809-0.058c0.996-0.246,1.69-1.044,1.694-2.069C297.315,438.696,297.318,434.997,297.3,431.299z
					 M268.85,417.162c5.337,0,10.674,0,16.01,0c0.548,0,0.554,0.007,0.554,0.561c0.001,2.243-0.001,4.486,0.001,6.73
					c0.001,0.811,0.249,1.059,1.06,1.059c1.91,0.001,3.821,0,5.731,0.001c0.458,0,0.479,0.021,0.481,0.483
					c0.003,0.887,0.002,1.775,0,2.662c-0.001,0.477-0.024,0.498-0.504,0.499c-3.895,0.001-7.79,0-11.684,0
					c-3.882,0-7.765,0-11.647,0c-0.55,0-0.552-0.001-0.552-0.561c-0.001-3.624-0.001-7.247,0-10.871
					C268.299,417.166,268.303,417.162,268.85,417.162z M292.135,451.579c-3.883,0.001-7.766,0-11.65,0c-3.871,0-7.742,0-11.613,0
					c-0.572,0-0.574-0.002-0.574-0.579c-0.001-1.997-0.001-3.994,0.001-5.991c0-0.464,0.023-0.486,0.478-0.487
					c7.803-0.001,15.607-0.001,23.41,0c0.478,0,0.499,0.02,0.499,0.503c0.001,1.997,0.001,3.994,0,5.991
					C292.687,451.574,292.682,451.579,292.135,451.579z"/>
			</g>
			<g>
				<path style="fill:#FFFFFF;" d="M272.966,434.183v1.831h3.165v1.412h-3.165v1.831h3.518v1.412h-5.007v-7.897h5.007v1.412H272.966
					z"/>
				<path style="fill:#FFFFFF;" d="M277.852,440.669v-7.897h2.779c0.375,0,0.726,0.061,1.053,0.182
					c0.327,0.121,0.612,0.292,0.855,0.513c0.243,0.221,0.434,0.483,0.574,0.789c0.14,0.305,0.209,0.642,0.209,1.009
					c0,0.375-0.07,0.715-0.209,1.02c-0.14,0.305-0.331,0.568-0.574,0.789c-0.243,0.221-0.528,0.392-0.855,0.513
					c-0.327,0.121-0.678,0.182-1.053,0.182h-1.29v2.901H277.852z M280.653,436.356c0.389,0,0.684-0.111,0.882-0.331
					c0.199-0.22,0.298-0.474,0.298-0.761c0-0.14-0.024-0.276-0.072-0.408c-0.048-0.132-0.121-0.248-0.221-0.347
					c-0.099-0.099-0.222-0.178-0.37-0.237c-0.147-0.059-0.32-0.089-0.518-0.089h-1.312v2.173H280.653z"/>
				<path style="fill:#FFFFFF;" d="M286.797,440.845c-0.338,0-0.662-0.048-0.971-0.143c-0.309-0.095-0.592-0.239-0.849-0.43
					c-0.257-0.191-0.482-0.425-0.673-0.7c-0.191-0.276-0.342-0.597-0.452-0.965l1.401-0.551c0.103,0.397,0.283,0.726,0.541,0.987
					c0.257,0.261,0.595,0.392,1.015,0.392c0.154,0,0.303-0.02,0.447-0.061c0.143-0.04,0.272-0.099,0.386-0.176
					c0.114-0.077,0.204-0.175,0.27-0.292c0.066-0.118,0.1-0.254,0.1-0.408c0-0.147-0.026-0.279-0.077-0.397
					c-0.051-0.117-0.138-0.227-0.259-0.331c-0.121-0.103-0.279-0.202-0.474-0.298c-0.195-0.095-0.436-0.195-0.723-0.298
					l-0.485-0.176c-0.213-0.073-0.428-0.173-0.645-0.298c-0.217-0.125-0.414-0.276-0.59-0.452c-0.176-0.176-0.322-0.384-0.436-0.623
					c-0.114-0.239-0.171-0.509-0.171-0.81c0-0.309,0.061-0.597,0.182-0.866c0.121-0.268,0.294-0.503,0.518-0.706
					c0.224-0.202,0.493-0.36,0.805-0.474c0.312-0.114,0.66-0.171,1.042-0.171c0.397,0,0.741,0.053,1.031,0.16
					c0.29,0.107,0.537,0.243,0.739,0.408c0.202,0.165,0.365,0.348,0.491,0.546c0.125,0.199,0.217,0.386,0.276,0.563l-1.312,0.551
					c-0.074-0.221-0.208-0.419-0.403-0.596c-0.195-0.176-0.462-0.265-0.799-0.265c-0.324,0-0.592,0.075-0.805,0.226
					c-0.213,0.151-0.32,0.348-0.32,0.59c0,0.235,0.103,0.436,0.309,0.601c0.206,0.165,0.533,0.325,0.982,0.48l0.496,0.165
					c0.316,0.111,0.605,0.237,0.866,0.381c0.261,0.143,0.485,0.314,0.673,0.513c0.187,0.199,0.331,0.425,0.43,0.678
					c0.099,0.254,0.149,0.546,0.149,0.877c0,0.412-0.083,0.767-0.248,1.064c-0.165,0.298-0.377,0.542-0.634,0.734
					c-0.258,0.191-0.548,0.335-0.872,0.43C287.422,440.797,287.105,440.845,286.797,440.845z"/>
			</g>
			<g>
				<path style="fill:#FFFFFF;" d="M321.394,439.168l4.004-4.985h-3.827v-1.412h5.559v1.5l-3.96,4.985h4.004v1.412h-5.779V439.168z"
					/>
				<path style="fill:#FFFFFF;" d="M328.409,432.771h1.489v7.897h-1.489V432.771z"/>
				<path style="fill:#FFFFFF;" d="M331.486,440.669v-7.897h2.779c0.375,0,0.726,0.061,1.053,0.182
					c0.327,0.121,0.612,0.292,0.855,0.513s0.434,0.483,0.574,0.789c0.14,0.305,0.209,0.642,0.209,1.009
					c0,0.375-0.07,0.715-0.209,1.02c-0.14,0.305-0.331,0.568-0.574,0.789c-0.243,0.221-0.528,0.392-0.855,0.513
					c-0.327,0.121-0.678,0.182-1.053,0.182h-1.29v2.901H331.486z M334.288,436.356c0.389,0,0.684-0.111,0.882-0.331
					c0.199-0.22,0.298-0.474,0.298-0.761c0-0.14-0.024-0.276-0.072-0.408c-0.048-0.132-0.121-0.248-0.221-0.347
					c-0.099-0.099-0.222-0.178-0.37-0.237c-0.147-0.059-0.32-0.089-0.518-0.089h-1.312v2.173H334.288z"/>
			</g>
		</g>
		<g style="opacity:0.61;">
			<path style="fill:#FFFFFF;" d="M300.133,433.27h9.067v2.242h-9.067V433.27z M300.133,437.136h9.067v2.243h-9.067V437.136z"/>
		</g>
	</g>
	<g style="display:inline;opacity:0.61;">
		<path style="fill:#FFFFFF;" d="M156.756,478.878h1.607c1.263,0,2.114,0.812,2.114,1.974c0,1.161-0.851,1.973-2.114,1.973h-1.607
			V478.878z M158.34,482.464c1.049,0,1.725-0.665,1.725-1.612c0-0.947-0.677-1.613-1.725-1.613h-1.167v3.225H158.34z"/>
		<path style="fill:#FFFFFF;" d="M165.139,480.851c0-1.15,0.879-2.007,2.075-2.007c1.184,0,2.069,0.851,2.069,2.007
			c0,1.156-0.885,2.007-2.069,2.007C166.019,482.858,165.139,482.002,165.139,480.851z M168.866,480.851
			c0-0.942-0.705-1.635-1.652-1.635c-0.953,0-1.663,0.693-1.663,1.635c0,0.941,0.71,1.635,1.663,1.635
			C168.162,482.486,168.866,481.793,168.866,480.851z"/>
		<path style="fill:#FFFFFF;" d="M179.596,478.878l-1.331,3.947h-0.44l-1.156-3.366l-1.161,3.366h-0.434l-1.331-3.947h0.429
			l1.139,3.394l1.178-3.394h0.389l1.161,3.411l1.156-3.411H179.596z"/>
		<path style="fill:#FFFFFF;" d="M187.731,478.878v3.947h-0.344l-2.537-3.202v3.202h-0.417v-3.947h0.344l2.543,3.203v-3.203H187.731
			z"/>
		<path style="fill:#FFFFFF;" d="M193.093,478.878h0.417v3.586h2.21v0.361h-2.627V478.878z"/>
		<path style="fill:#FFFFFF;" d="M200.061,480.851c0-1.15,0.879-2.007,2.075-2.007c1.184,0,2.069,0.851,2.069,2.007
			c0,1.156-0.885,2.007-2.069,2.007C200.941,482.858,200.061,482.002,200.061,480.851z M203.788,480.851
			c0-0.942-0.705-1.635-1.652-1.635c-0.953,0-1.663,0.693-1.663,1.635c0,0.941,0.71,1.635,1.663,1.635
			C203.083,482.486,203.788,481.793,203.788,480.851z"/>
		<path style="fill:#FFFFFF;" d="M211.636,481.77h-2.199l-0.474,1.054h-0.434l1.804-3.947h0.412l1.804,3.947h-0.44L211.636,481.77z
			 M211.484,481.432l-0.947-2.12l-0.947,2.12H211.484z"/>
		<path style="fill:#FFFFFF;" d="M217.28,478.878h1.607c1.263,0,2.114,0.812,2.114,1.974c0,1.161-0.851,1.973-2.114,1.973h-1.607
			V478.878z M218.864,482.464c1.049,0,1.725-0.665,1.725-1.612c0-0.947-0.677-1.613-1.725-1.613h-1.167v3.225H218.864z"/>
		<path style="fill:#FFFFFF;" d="M234.041,481.77h-2.199l-0.474,1.054h-0.434l1.804-3.947h0.412l1.804,3.947h-0.44L234.041,481.77z
			 M233.889,481.432l-0.947-2.12l-0.947,2.12H233.889z"/>
		<path style="fill:#FFFFFF;" d="M239.685,478.878h0.417v3.586h2.21v0.361h-2.627V478.878z"/>
		<path style="fill:#FFFFFF;" d="M247.082,478.878h0.417v3.586h2.21v0.361h-2.627V478.878z"/>
		<path style="fill:#FFFFFF;" d="M260.449,479.239v1.551h2.041v0.361h-2.041v1.675h-0.417v-3.947h2.706v0.361H260.449z"/>
		<path style="fill:#FFFFFF;" d="M267.678,478.878h0.417v3.947h-0.417V478.878z"/>
		<path style="fill:#FFFFFF;" d="M273.456,478.878h0.417v3.586h2.21v0.361h-2.627V478.878z"/>
		<path style="fill:#FFFFFF;" d="M283.644,482.464v0.361h-2.791v-3.947h2.706v0.361h-2.289v1.404h2.041v0.355h-2.041v1.466H283.644z
			"/>
		<path style="fill:#FFFFFF;" d="M294.672,479.239v1.551h2.041v0.361h-2.041v1.675h-0.417v-3.947h2.706v0.361H294.672z"/>
		<path style="fill:#FFFFFF;" d="M301.5,480.851c0-1.15,0.879-2.007,2.075-2.007c1.184,0,2.069,0.851,2.069,2.007
			c0,1.156-0.885,2.007-2.069,2.007C302.379,482.858,301.5,482.002,301.5,480.851z M305.226,480.851
			c0-0.942-0.705-1.635-1.652-1.635c-0.953,0-1.663,0.693-1.663,1.635c0,0.941,0.71,1.635,1.663,1.635
			C304.522,482.486,305.226,481.793,305.226,480.851z"/>
		<path style="fill:#FFFFFF;" d="M313.351,482.825l-0.902-1.269c-0.102,0.011-0.203,0.017-0.316,0.017h-1.06v1.252h-0.417v-3.947
			h1.477c1.004,0,1.613,0.507,1.613,1.353c0,0.62-0.327,1.054-0.902,1.24l0.964,1.353H313.351z M313.328,480.231
			c0-0.632-0.417-0.992-1.207-0.992h-1.048v1.979h1.048C312.911,481.218,313.328,480.851,313.328,480.231z"/>
		<path style="fill:#FFFFFF;" d="M322.907,478.878v3.947h-0.4v-3.158l-1.551,2.656h-0.197l-1.551-2.639v3.14h-0.4v-3.947h0.344
			l1.714,2.926l1.697-2.926H322.907z"/>
		<path style="fill:#FFFFFF;" d="M330.744,481.77h-2.199l-0.473,1.054h-0.434l1.804-3.947h0.411l1.804,3.947h-0.44L330.744,481.77z
			 M330.592,481.432l-0.947-2.12l-0.947,2.12H330.592z"/>
		<path style="fill:#FFFFFF;" d="M336.957,479.239h-1.387v-0.361h3.192v0.361h-1.387v3.586h-0.417V479.239z"/>
		<path style="fill:#FFFFFF;" d="M343.063,482.346l0.164-0.321c0.282,0.276,0.784,0.479,1.302,0.479c0.739,0,1.06-0.31,1.06-0.699
			c0-1.083-2.43-0.417-2.43-1.877c0-0.581,0.451-1.083,1.455-1.083c0.446,0,0.908,0.13,1.224,0.35l-0.141,0.333
			c-0.338-0.22-0.733-0.327-1.083-0.327c-0.722,0-1.043,0.321-1.043,0.716c0,1.083,2.43,0.429,2.43,1.866
			c0,0.581-0.462,1.077-1.472,1.077C343.937,482.858,343.356,482.65,343.063,482.346z"/>
	</g>
</g>
<g>
</g>
<g>
	<path style="fill:#2A2A2A;" d="M479.323,206.729v0.024c-2.181,8.759-8.455,15.104-12.967,19.108l-0.11,0.097
		c-0.702,0.611-1.44,1.182-2.206,1.711c0.331,0.681,0.613,1.387,0.836,2.111l0.037,0.134c0.861,2.886,1.078,5.925,0.643,8.905
		c-0.821,4.981-2.169,9.861-4.016,14.558c-0.815,2.281-1.59,4.44-2.184,6.563c-1.639,5.678-3.508,12.399-5.012,19.266
		c-1.069,5.008-1.446,10.139-1.115,15.25c0.196,2.258-0.208,4.527-1.173,6.577c-0.965,2.05-2.457,3.808-4.322,5.094
		c-3.624,2.797-7.686,4.973-12.024,6.442c-7.144,2.172-12.131,0.279-15.054-1.699c-0.481-0.323-0.937-0.676-1.372-1.055
		c-3.612,2.26-7.649,3.748-11.865,4.367c-1.685,0.251-3.382,0.38-5.085,0.388c-3.305,0.094-6.592-0.512-9.647-1.78
		c-3.057-1.267-5.808-3.166-8.078-5.572c-0.597-0.628-1.158-1.288-1.685-1.978c-1.584,1.142-3.25,2.164-4.987,3.057
		c-4.892,2.592-10.483,3.561-15.963,2.766c-4.629-0.51-9.006-2.351-12.606-5.302c-4.133-3.665-6.837-8.67-7.643-14.134
		c-0.257-1.359-0.432-2.733-0.521-4.113c-2.438,3.482-5.073,6.745-7.609,9.815c-4.702,5.951-10.67,10.783-17.469,14.146
		c-7.057,3.446-15.146,4.138-22.687,1.941c-4.159-1.027-8.127-2.71-11.756-4.986c-1.927-1.254-3.663-2.778-5.156-4.525
		c-1.48,1.529-2.96,2.936-4.379,4.295c-0.861,0.825-1.735,1.65-2.584,2.487c-1.326,1.311-2.901,2.343-4.633,3.035
		c-1.732,0.692-3.584,1.029-5.449,0.993c-0.992-0.001-1.981-0.082-2.96-0.243c-4.314-0.639-8.524-1.847-12.52-3.591l-0.121-0.061
		c-4.044-1.799-7.5-4.7-9.973-8.371c-3.746,3.062-7.873,5.627-12.277,7.631c-4.375,2.115-9.083,3.458-13.915,3.967
		c-4.249,0.475-8.526,0.641-12.799,0.497c-7.16-0.262-14.112-2.477-20.103-6.406c-6.263-4.264-10.734-10.687-12.557-18.04
		c-0.036-0.158-0.085-0.316-0.122-0.473c-2.06,0.955-4.226,1.66-6.454,2.099c-5.8,1.277-11.846,0.851-17.409-1.225
		c-2.926-1.11-5.521-2.944-7.544-5.331c-2.022-2.387-3.405-5.249-4.018-8.317c-4.536,6.485-8.669,13.243-12.375,20.236
		c-0.388,0.716-0.777,1.589-1.201,2.499c-0.832,1.909-1.789,3.76-2.863,5.544c-1.833,3.051-4.441,5.562-7.558,7.279
		c-3.117,1.717-6.633,2.58-10.191,2.499h-0.061c-3.788,0.11-7.545-0.711-10.943-2.39c-0.388-0.206-0.764-0.425-1.128-0.655
		c-0.522,0.267-1.043,0.522-1.589,0.776c-4.876,2.458-10.143,4.047-15.565,4.695l-0.873,0.097c-2.244,0.218-4.707,0.461-7.303,0.461
		c-0.74,0-1.492-0.024-2.244-0.061c-7.469-0.316-14.643-3.007-20.479-7.679c-5.895-4.825-9.927-11.55-11.404-19.023
		c-1.054-5.052-1.214-10.251-0.473-15.359c1.088-7.441,3.5-14.628,7.121-21.219c2.758-5.267,6.047-10.238,9.815-14.837
		c4.106-5.003,8.969-9.334,14.413-12.836c4.409-2.874,9.338-4.857,14.51-5.835c7.049-1.31,13.818,0.376,20.746,5.168
		c3.587,2.454,6.671,5.571,9.087,9.184c4.731-6.612,10.652-10.433,17.604-11.331c3.509-0.573,7.11-0.066,10.325,1.452
		c3.215,1.519,5.893,3.978,7.679,7.052c1.998-1.372,4.109-2.573,6.308-3.591c4.619-2.278,9.726-3.39,14.874-3.239
		c7.946,0.352,13.988,2.984,18.453,8.056c1.776,2.023,3.125,4.383,3.967,6.94c1.786-2.166,3.741-4.186,5.847-6.042
		c5.609-5.199,12.589-8.685,20.115-10.046c2.76-0.396,5.555-0.485,8.335-0.267c0.582,0.024,1.177,0.048,1.759,0.061
		c4.207,0.161,8.34,1.159,12.156,2.936c4.845,2.082,8.962,5.558,11.829,9.985c0.607-1.007,1.261-2.002,1.953-2.96
		c4.125-5.714,9.293-9.087,15.359-10.033c2.688-0.506,5.452-0.452,8.117,0.16c2.666,0.611,5.177,1.768,7.375,3.395
		c2.595,2.012,4.55,4.733,5.629,7.834c1.079,3.101,1.235,6.448,0.449,9.636c-0.231,1.092-0.473,2.196-0.716,3.288
		c0.983-2.099,1.99-4.222,3.045-6.321c3.179-6.406,7.376-10.785,12.823-13.37c3.326-1.657,7.041-2.376,10.745-2.082
		c3.704,0.295,7.258,1.594,10.28,3.756c2.742,1.868,6.102,5.52,6.563,12.314c0.151,4.101-0.479,8.193-1.856,12.059
		c-0.267,0.873-0.534,1.759-0.813,2.645l0.51-1.165c1.031-2.354,2.075-4.707,3.131-7.037c3.226-7.158,6.537-14.473,15.381-19.945
		c1.958-1.266,4.047-2.307,6.237-3.106c6.853-2.329,21-1.759,25.999,7.315c2.662-2.433,5.67-4.457,8.927-6.005
		c4.439-2.201,9.328-3.343,14.282-3.336l0.46,0.012c3.783-0.104,7.56,0.374,11.2,1.419c2.337,0.719,4.522,1.867,6.439,3.385
		c5.438-1.929,12.364-1.808,17.471,2.208c1.008,0.806,1.905,1.74,2.671,2.778c1.55-2.443,3.312-4.745,5.263-6.879
		c2.19-2.435,4.831-4.421,7.778-5.848c-1.1-2.616-1.918-5.34-2.438-8.128c-0.564-2.659-0.888-5.363-0.971-8.08v-0.218
		c-0.135-5.099,1.385-10.104,4.332-14.267c1.817-2.601,4.218-4.738,7.012-6.241c2.794-1.502,5.903-2.328,9.074-2.409
		c4.497-0.222,8.973,0.754,12.97,2.827c3.762,2.06,6.724,5.328,8.4,9.277C480.16,198.19,480.457,202.59,479.323,206.729z"/>
	<defs>
		<filter id="Adobe_OpacityMaskFilter" filterUnits="userSpaceOnUse" x="18" y="180.106" width="464" height="139.787">
			<feColorMatrix  type="matrix" values="1 0 0 0 0  0 1 0 0 0  0 0 1 0 0  0 0 0 1 0"/>
		</filter>
	</defs>
	
		<mask maskUnits="userSpaceOnUse" x="18" y="180.106" width="464" height="139.787" id="path-1-outside-1_7_2359_00000044176755665187076620000014225889907642811046_">
		<rect x="13.873" y="175.979" style="fill:#FFFFFF;filter:url(#Adobe_OpacityMaskFilter);" width="474.827" height="150.107"/>
		<path d="M479.323,206.729v0.024c-2.181,8.759-8.455,15.104-12.967,19.108l-0.11,0.097c-0.702,0.611-1.44,1.182-2.206,1.711
			c0.331,0.681,0.613,1.387,0.836,2.111l0.037,0.134c0.861,2.886,1.078,5.925,0.643,8.905c-0.821,4.981-2.169,9.861-4.016,14.558
			c-0.815,2.281-1.59,4.44-2.184,6.563c-1.639,5.678-3.508,12.399-5.012,19.266c-1.069,5.008-1.446,10.139-1.115,15.25
			c0.196,2.258-0.208,4.527-1.173,6.577c-0.965,2.05-2.457,3.808-4.322,5.094c-3.624,2.797-7.686,4.973-12.024,6.442
			c-7.144,2.172-12.131,0.279-15.054-1.699c-0.481-0.323-0.937-0.676-1.372-1.055c-3.612,2.26-7.649,3.748-11.865,4.367
			c-1.685,0.251-3.382,0.38-5.085,0.388c-3.305,0.094-6.592-0.512-9.647-1.78c-3.057-1.267-5.808-3.166-8.078-5.572
			c-0.597-0.628-1.158-1.288-1.685-1.978c-1.584,1.142-3.25,2.164-4.987,3.057c-4.892,2.592-10.483,3.561-15.963,2.766
			c-4.629-0.51-9.006-2.351-12.606-5.302c-4.133-3.665-6.837-8.67-7.643-14.134c-0.257-1.359-0.432-2.733-0.521-4.113
			c-2.438,3.482-5.073,6.745-7.609,9.815c-4.702,5.951-10.67,10.783-17.469,14.146c-7.057,3.446-15.146,4.138-22.687,1.941
			c-4.159-1.027-8.127-2.71-11.756-4.986c-1.927-1.254-3.663-2.778-5.156-4.525c-1.48,1.529-2.96,2.936-4.379,4.295
			c-0.861,0.825-1.735,1.65-2.584,2.487c-1.326,1.311-2.901,2.343-4.633,3.035c-1.732,0.692-3.584,1.029-5.449,0.993
			c-0.992-0.001-1.981-0.082-2.96-0.243c-4.314-0.639-8.524-1.847-12.52-3.591l-0.121-0.061c-4.044-1.799-7.5-4.7-9.973-8.371
			c-3.746,3.062-7.873,5.627-12.277,7.631c-4.375,2.115-9.083,3.458-13.915,3.967c-4.249,0.475-8.526,0.641-12.799,0.497
			c-7.16-0.262-14.112-2.477-20.103-6.406c-6.263-4.264-10.734-10.687-12.557-18.04c-0.036-0.158-0.085-0.316-0.122-0.473
			c-2.06,0.955-4.226,1.66-6.454,2.099c-5.8,1.277-11.846,0.851-17.409-1.225c-2.926-1.11-5.521-2.944-7.544-5.331
			c-2.022-2.387-3.405-5.249-4.018-8.317c-4.536,6.485-8.669,13.243-12.375,20.236c-0.388,0.716-0.777,1.589-1.201,2.499
			c-0.832,1.909-1.789,3.76-2.863,5.544c-1.833,3.051-4.441,5.562-7.558,7.279c-3.117,1.717-6.633,2.58-10.191,2.499h-0.061
			c-3.788,0.11-7.545-0.711-10.943-2.39c-0.388-0.206-0.764-0.425-1.128-0.655c-0.522,0.267-1.043,0.522-1.589,0.776
			c-4.876,2.458-10.143,4.047-15.565,4.695l-0.873,0.097c-2.244,0.218-4.707,0.461-7.303,0.461c-0.74,0-1.492-0.024-2.244-0.061
			c-7.469-0.316-14.643-3.007-20.479-7.679c-5.895-4.825-9.927-11.55-11.404-19.023c-1.054-5.052-1.214-10.251-0.473-15.359
			c1.088-7.441,3.5-14.628,7.121-21.219c2.758-5.267,6.047-10.238,9.815-14.837c4.106-5.003,8.969-9.334,14.413-12.836
			c4.409-2.874,9.338-4.857,14.51-5.835c7.049-1.31,13.818,0.376,20.746,5.168c3.587,2.454,6.671,5.571,9.087,9.184
			c4.731-6.612,10.652-10.433,17.604-11.331c3.509-0.573,7.11-0.066,10.325,1.452c3.215,1.519,5.893,3.978,7.679,7.052
			c1.998-1.372,4.109-2.573,6.308-3.591c4.619-2.278,9.726-3.39,14.874-3.239c7.946,0.352,13.988,2.984,18.453,8.056
			c1.776,2.023,3.125,4.383,3.967,6.94c1.786-2.166,3.741-4.186,5.847-6.042c5.609-5.199,12.589-8.685,20.115-10.046
			c2.76-0.396,5.555-0.485,8.335-0.267c0.582,0.024,1.177,0.048,1.759,0.061c4.207,0.161,8.34,1.159,12.156,2.936
			c4.845,2.082,8.962,5.558,11.829,9.985c0.607-1.007,1.261-2.002,1.953-2.96c4.125-5.714,9.293-9.087,15.359-10.033
			c2.688-0.506,5.452-0.452,8.117,0.16c2.666,0.611,5.177,1.768,7.375,3.395c2.595,2.012,4.55,4.733,5.629,7.834
			c1.079,3.101,1.235,6.448,0.449,9.636c-0.231,1.092-0.473,2.196-0.716,3.288c0.983-2.099,1.99-4.222,3.045-6.321
			c3.179-6.406,7.376-10.785,12.823-13.37c3.326-1.657,7.041-2.376,10.745-2.082c3.704,0.295,7.258,1.594,10.28,3.756
			c2.742,1.868,6.102,5.52,6.563,12.314c0.151,4.101-0.479,8.193-1.856,12.059c-0.267,0.873-0.534,1.759-0.813,2.645l0.51-1.165
			c1.031-2.354,2.075-4.707,3.131-7.037c3.226-7.158,6.537-14.473,15.381-19.945c1.958-1.266,4.047-2.307,6.237-3.106
			c6.853-2.329,21-1.759,25.999,7.315c2.662-2.433,5.67-4.457,8.927-6.005c4.439-2.201,9.328-3.343,14.282-3.336l0.46,0.012
			c3.783-0.104,7.56,0.374,11.2,1.419c2.337,0.719,4.522,1.867,6.439,3.385c5.438-1.929,12.364-1.808,17.471,2.208
			c1.008,0.806,1.905,1.74,2.671,2.778c1.55-2.443,3.312-4.745,5.263-6.879c2.19-2.435,4.831-4.421,7.778-5.848
			c-1.1-2.616-1.918-5.34-2.438-8.128c-0.564-2.659-0.888-5.363-0.971-8.08v-0.218c-0.135-5.099,1.385-10.104,4.332-14.267
			c1.817-2.601,4.218-4.738,7.012-6.241c2.794-1.502,5.903-2.328,9.074-2.409c4.497-0.222,8.973,0.754,12.97,2.827
			c3.762,2.06,6.724,5.328,8.4,9.277C480.16,198.19,480.457,202.59,479.323,206.729z"/>
	</mask>
	
		<path style="mask:url(#path-1-outside-1_7_2359_00000044176755665187076620000014225889907642811046_);fill:none;stroke:#FFFFFF;stroke-width:4;" d="
		M479.323,206.729v0.024c-2.181,8.759-8.455,15.104-12.967,19.108l-0.11,0.097c-0.702,0.611-1.44,1.182-2.206,1.711
		c0.331,0.681,0.613,1.387,0.836,2.111l0.037,0.134c0.861,2.886,1.078,5.925,0.643,8.905c-0.821,4.981-2.169,9.861-4.016,14.558
		c-0.815,2.281-1.59,4.44-2.184,6.563c-1.639,5.678-3.508,12.399-5.012,19.266c-1.069,5.008-1.446,10.139-1.115,15.25
		c0.196,2.258-0.208,4.527-1.173,6.577c-0.965,2.05-2.457,3.808-4.322,5.094c-3.624,2.797-7.686,4.973-12.024,6.442
		c-7.144,2.172-12.131,0.279-15.054-1.699c-0.481-0.323-0.937-0.676-1.372-1.055c-3.612,2.26-7.649,3.748-11.865,4.367
		c-1.685,0.251-3.382,0.38-5.085,0.388c-3.305,0.094-6.592-0.512-9.647-1.78c-3.057-1.267-5.808-3.166-8.078-5.572
		c-0.597-0.628-1.158-1.288-1.685-1.978c-1.584,1.142-3.25,2.164-4.987,3.057c-4.892,2.592-10.483,3.561-15.963,2.766
		c-4.629-0.51-9.006-2.351-12.606-5.302c-4.133-3.665-6.837-8.67-7.643-14.134c-0.257-1.359-0.432-2.733-0.521-4.113
		c-2.438,3.482-5.073,6.745-7.609,9.815c-4.702,5.951-10.67,10.783-17.469,14.146c-7.057,3.446-15.146,4.138-22.687,1.941
		c-4.159-1.027-8.127-2.71-11.756-4.986c-1.927-1.254-3.663-2.778-5.156-4.525c-1.48,1.529-2.96,2.936-4.379,4.295
		c-0.861,0.825-1.735,1.65-2.584,2.487c-1.326,1.311-2.901,2.343-4.633,3.035c-1.732,0.692-3.584,1.029-5.449,0.993
		c-0.992-0.001-1.981-0.082-2.96-0.243c-4.314-0.639-8.524-1.847-12.52-3.591l-0.121-0.061c-4.044-1.799-7.5-4.7-9.973-8.371
		c-3.746,3.062-7.873,5.627-12.277,7.631c-4.375,2.115-9.083,3.458-13.915,3.967c-4.249,0.475-8.526,0.641-12.799,0.497
		c-7.16-0.262-14.112-2.477-20.103-6.406c-6.263-4.264-10.734-10.687-12.557-18.04c-0.036-0.158-0.085-0.316-0.122-0.473
		c-2.06,0.955-4.226,1.66-6.454,2.099c-5.8,1.277-11.846,0.851-17.409-1.225c-2.926-1.11-5.521-2.944-7.544-5.331
		c-2.022-2.387-3.405-5.249-4.018-8.317c-4.536,6.485-8.669,13.243-12.375,20.236c-0.388,0.716-0.777,1.589-1.201,2.499
		c-0.832,1.909-1.789,3.76-2.863,5.544c-1.833,3.051-4.441,5.562-7.558,7.279c-3.117,1.717-6.633,2.58-10.191,2.499h-0.061
		c-3.788,0.11-7.545-0.711-10.943-2.39c-0.388-0.206-0.764-0.425-1.128-0.655c-0.522,0.267-1.043,0.522-1.589,0.776
		c-4.876,2.458-10.143,4.047-15.565,4.695l-0.873,0.097c-2.244,0.218-4.707,0.461-7.303,0.461c-0.74,0-1.492-0.024-2.244-0.061
		c-7.469-0.316-14.643-3.007-20.479-7.679c-5.895-4.825-9.927-11.55-11.404-19.023c-1.054-5.052-1.214-10.251-0.473-15.359
		c1.088-7.441,3.5-14.628,7.121-21.219c2.758-5.267,6.047-10.238,9.815-14.837c4.106-5.003,8.969-9.334,14.413-12.836
		c4.409-2.874,9.338-4.857,14.51-5.835c7.049-1.31,13.818,0.376,20.746,5.168c3.587,2.454,6.671,5.571,9.087,9.184
		c4.731-6.612,10.652-10.433,17.604-11.331c3.509-0.573,7.11-0.066,10.325,1.452c3.215,1.519,5.893,3.978,7.679,7.052
		c1.998-1.372,4.109-2.573,6.308-3.591c4.619-2.278,9.726-3.39,14.874-3.239c7.946,0.352,13.988,2.984,18.453,8.056
		c1.776,2.023,3.125,4.383,3.967,6.94c1.786-2.166,3.741-4.186,5.847-6.042c5.609-5.199,12.589-8.685,20.115-10.046
		c2.76-0.396,5.555-0.485,8.335-0.267c0.582,0.024,1.177,0.048,1.759,0.061c4.207,0.161,8.34,1.159,12.156,2.936
		c4.845,2.082,8.962,5.558,11.829,9.985c0.607-1.007,1.261-2.002,1.953-2.96c4.125-5.714,9.293-9.087,15.359-10.033
		c2.688-0.506,5.452-0.452,8.117,0.16c2.666,0.611,5.177,1.768,7.375,3.395c2.595,2.012,4.55,4.733,5.629,7.834
		c1.079,3.101,1.235,6.448,0.449,9.636c-0.231,1.092-0.473,2.196-0.716,3.288c0.983-2.099,1.99-4.222,3.045-6.321
		c3.179-6.406,7.376-10.785,12.823-13.37c3.326-1.657,7.041-2.376,10.745-2.082c3.704,0.295,7.258,1.594,10.28,3.756
		c2.742,1.868,6.102,5.52,6.563,12.314c0.151,4.101-0.479,8.193-1.856,12.059c-0.267,0.873-0.534,1.759-0.813,2.645l0.51-1.165
		c1.031-2.354,2.075-4.707,3.131-7.037c3.226-7.158,6.537-14.473,15.381-19.945c1.958-1.266,4.047-2.307,6.237-3.106
		c6.853-2.329,21-1.759,25.999,7.315c2.662-2.433,5.67-4.457,8.927-6.005c4.439-2.201,9.328-3.343,14.282-3.336l0.46,0.012
		c3.783-0.104,7.56,0.374,11.2,1.419c2.337,0.719,4.522,1.867,6.439,3.385c5.438-1.929,12.364-1.808,17.471,2.208
		c1.008,0.806,1.905,1.74,2.671,2.778c1.55-2.443,3.312-4.745,5.263-6.879c2.19-2.435,4.831-4.421,7.778-5.848
		c-1.1-2.616-1.918-5.34-2.438-8.128c-0.564-2.659-0.888-5.363-0.971-8.08v-0.218c-0.135-5.099,1.385-10.104,4.332-14.267
		c1.817-2.601,4.218-4.738,7.012-6.241c2.794-1.502,5.903-2.328,9.074-2.409c4.497-0.222,8.973,0.754,12.97,2.827
		c3.762,2.06,6.724,5.328,8.4,9.277C480.16,198.19,480.457,202.59,479.323,206.729z"/>
	<path style="fill:#DE5A51;" d="M456.189,232.512c-0.959-3.045-3.762-3.591-6.467-3.846c-4.439-0.4-7.922,1.832-10.725,4.853
		c-2.307,2.583-4.322,5.415-6.004,8.444c-3.52,6.084-5.658,12.803-7.708,19.474c-1.333,4.338-2.503,8.155-4.163,13.784
		c-0.983,3.33-2.092,8.467-5.177,11.061c-0.769,0.711-1.777,1.113-2.824,1.128c-1.287-0.182-1.749-1.541-1.807-2.802
		c-0.074-1.395-0.074-2.79-0.012-4.186c0.352-4.277,1.247-8.491,2.656-12.545c2.062-6.672,4.283-13.296,6.283-19.993
		c0.855-2.312,0.895-4.846,0.11-7.182c-0.34-0.825-0.882-1.551-1.578-2.111c-2.779-2.184-7.812-1.82-10.857,0.206
		c-1.008,0.692-2.003,1.407-3.057,2.135c-0.233-0.376-0.414-0.643-0.582-0.934c-0.677-1.306-1.605-2.464-2.729-3.408
		c-1.127-0.944-2.432-1.653-3.835-2.088c-2.938-0.778-5.977-1.113-9.013-0.995c-3.572,0.019-7.089,0.862-10.278,2.463
		c-5.012,2.536-9.282,6.333-12.385,11.016c-3.44,4.694-6.501,9.656-9.147,14.837c-2.754,5.213-4.761,10.788-5.958,16.56
		c-0.404,2.114-0.649,4.255-0.726,6.406c-0.021,1.742,0.138,3.482,0.472,5.192c0.435,3.401,2.059,6.538,4.586,8.856
		c2.304,1.829,5.091,2.951,8.02,3.227c3.581,0.525,7.239-0.113,10.434-1.82c3.465-1.823,6.58-4.242,9.206-7.146
		c1.106-1.189,2.27-2.329,3.532-3.64c0.144,0.764,0.254,1.25,0.328,1.735c0.453,3.629,1.997,7.034,4.427,9.766
		c4.102,4.319,9.356,5.035,14.888,4.222c3.042-0.452,5.955-1.543,8.547-3.202c1.354-0.861,5.324-5.516,6.874-4.308
		c1.902,1.483,2.095,4.223,4.224,5.657c1.103,0.628,2.334,1.002,3.6,1.096c1.268,0.094,2.54-0.096,3.725-0.555
		c3.385-1.206,6.556-2.947,9.389-5.156c0.616-0.404,1.103-0.977,1.403-1.65c0.3-0.673,0.398-1.419,0.282-2.147
		c-0.358-5.92,0.08-11.862,1.311-17.664c1.467-6.66,3.266-13.248,5.143-19.799c1.893-6.672,5.012-12.993,5.958-19.945
		C456.795,235.838,456.673,234.132,456.189,232.512z M394.982,253.477c-1.927,8.132-5.692,15.714-11.004,22.165
		c-1.847,2.458-4.074,4.604-6.599,6.357c-1.495,0.995-2.95,1.359-3.774-0.485c-0.227-0.508-0.371-1.048-0.426-1.602
		c-0.328-3.166,1.238-6.466,2.319-9.353c1.189-3.251,2.518-6.434,3.992-9.548c2.123-4.501,4.61-8.82,8.492-12.059
		c1.268-0.958,2.684-1.711,4.185-2.232c1.032-0.413,2.245,0.509,2.717,1.65C395.451,250.02,395.484,251.806,394.982,253.477z"/>
	<path style="fill:#FFFFFF;" d="M167.404,270.331c-2.16,6.709-6.467,11.064-13.527,12.484c-4.107,0.935-8.398,0.656-12.35-0.801
		c-1.769-0.676-3.297-1.863-4.39-3.41c-1.093-1.547-1.702-3.383-1.749-5.276c-0.291-5.059,1.735-9.427,4.088-13.697
		c0.983-1.771,2.002-3.53,2.815-5.387c0.349-0.928,0.482-1.924,0.388-2.911c-0.048-0.329-0.171-0.642-0.359-0.916
		c-0.188-0.274-0.436-0.501-0.724-0.665c-0.289-0.164-0.611-0.259-0.943-0.28c-0.331-0.02-0.663,0.035-0.97,0.162
		c-1.75,0.813-3.382,1.857-4.853,3.106c-5.908,5.423-10.652,11.828-15.226,18.392c-4.891,6.944-9.34,14.189-13.321,21.692
		c-1.298,2.475-2.269,5.144-3.736,7.497c-1.023,1.743-2.5,3.175-4.273,4.143c-1.774,0.968-3.777,1.436-5.796,1.353
		c-2.325,0.103-4.641-0.363-6.745-1.359c-1.626-0.878-2.87-2.325-3.494-4.064c-2.414,1.347-4.804,2.839-7.328,4.028
		c-3.936,2.003-8.188,3.312-12.569,3.87c-2.98,0.389-5.986,0.544-8.99,0.461c-5.569-0.201-10.927-2.182-15.286-5.654
		c-4.291-3.522-7.211-8.438-8.25-13.891c-0.829-4.029-0.944-8.172-0.34-12.241c0.943-6.372,3.022-12.524,6.139-18.162
		c2.475-4.725,5.426-9.184,8.808-13.309c3.507-4.272,7.657-7.972,12.302-10.967c3.431-2.231,7.263-3.772,11.283-4.538
		c5.205-0.97,9.694,0.825,13.867,3.713c2.904,1.969,5.356,4.533,7.194,7.522c1.685,3.048,2.133,6.628,1.25,9.997
		c-0.901,3.679-2.224,7.241-3.943,10.616c-1.577,3.494-3.142,6.988-4.756,10.47c-0.267,0.757-0.822,1.377-1.545,1.725
		c-0.723,0.348-1.555,0.395-2.312,0.131c-2.249-0.712-4.272-2.001-5.869-3.737c-1.596-1.737-2.71-3.861-3.23-6.162
		c-0.378-3.297,0.159-6.634,1.553-9.645c1.443-3.724,3.106-7.364,4.707-11.016c0.148-0.245,0.244-0.518,0.284-0.801
		c0.039-0.284,0.02-0.572-0.056-0.848c-0.076-0.276-0.208-0.533-0.387-0.757c-0.179-0.223-0.401-0.408-0.654-0.543
		c-1.838,0.427-3.504,1.4-4.78,2.79c-2.256,2.232-4.392,4.586-6.43,7.024c-4.104,5.126-7.604,10.707-10.433,16.633
		c-1.771,3.407-2.875,7.121-3.251,10.943c-0.375,2.936-0.281,5.913,0.279,8.82c0.307,1.848,1.241,3.533,2.643,4.775
		c1.403,1.241,3.189,1.963,5.061,2.043c7.177,0.4,14.301-1.444,20.382-5.277c2.319-1.588,4.546-3.306,6.672-5.144
		c0.389-0.368,0.681-0.826,0.849-1.335c2.147-5.738,4.161-11.525,6.442-17.203c1.674-4.21,3.664-8.298,5.532-12.423
		c1.759-4.052,3.912-7.92,6.43-11.55c2.839-3.991,6.418-7.012,11.404-7.655c4.016-0.521,7.716,0.825,9.633,5.362
		c1.686,3.991,0.716,7.825-0.582,11.659c-0.34,0.983-0.667,1.965-1.092,3.227c2.342-2.548,4.331-4.974,6.576-7.11
		c3.614-3.665,7.812-6.703,12.423-8.99c3.303-1.655,6.958-2.483,10.652-2.414c4.574,0.206,8.844,1.359,12.047,4.986
		c1.394,1.639,2.313,3.627,2.657,5.751c0.752,3.943-0.558,7.485-2.014,11.028c-1.08,2.621-2.184,5.241-2.997,7.946
		c-0.655,2.196,0.509,3.749,2.839,4.343c0.516,0.134,1.045,0.219,1.577,0.255C167.489,269.178,167.61,269.664,167.404,270.331z"/>
	<path style="fill:#FFFFFF;" d="M357.804,238.459c-1.912-4.286-11.353-4.74-15.25-3.412c-1.541,0.577-3.011,1.326-4.384,2.234
		c-6.516,4.03-8.832,9.206-11.889,15.966c-3.033,6.672-5.824,13.466-9.074,20.03c-2.16,4.221-4.617,8.284-7.353,12.156
		c-1.555,2.519-4.047,4.317-6.927,4.999c-1.711,0.34-2.414-0.425-3.021-1.917c-0.558-1.37-0.898-2.819-1.007-4.295
		c-0.244-4.237,0.304-8.483,1.613-12.52c1.929-6.467,4.004-12.884,5.957-19.338c1.03-2.803,1.532-5.773,1.48-8.759
		c0.013-1.042-0.216-2.073-0.669-3.012c-0.452-0.939-1.117-1.76-1.94-2.399c-1.715-1.254-3.743-2.009-5.861-2.183
		c-2.117-0.173-4.241,0.242-6.138,1.2c-4.028,1.917-6.66,5.338-8.589,9.22c-2.73,5.459-5.192,11.052-7.862,16.536
		c-1.832,3.797-3.809,7.534-5.726,11.283c-2.429,5.155-5.35,10.063-8.723,14.656c-0.534,0.679-1.48,1.626-2.087,1.516
		c-0.728-0.109-1.31-1.213-1.929-1.905c-0.106-0.127-0.18-0.276-0.218-0.437c-0.926-3.342-1.087-6.85-0.473-10.264
		c0.619-3.858,1.395-7.704,2.281-11.513c1.747-7.607,3.737-15.165,5.375-22.808c0.424-1.502,0.392-3.096-0.092-4.58
		c-0.484-1.484-1.398-2.791-2.626-3.754c-1.224-0.875-2.616-1.486-4.088-1.795c-1.472-0.309-2.993-0.309-4.465,0
		c-4.04,0.631-7.012,3.081-9.378,6.357c-2.897,4.029-4.952,8.6-6.042,13.442c-0.934,4.004-1.553,8.08-2.22,12.156
		c-0.303,1.88-0.316,3.797-0.546,5.702c-0.066,0.527-0.29,1.022-0.643,1.42c-1.613,1.686-3.251,3.336-4.938,4.95
		c-3.193,3.079-6.853,5.634-10.844,7.57c-2.6,1.393-5.469,2.209-8.412,2.393c-2.943,0.184-5.892-0.268-8.645-1.325
		c-1.781-0.672-3.363-1.785-4.598-3.234c-1.235-1.449-2.082-3.187-2.463-5.052c2.366,0,4.647,0.024,6.927,0
		c5.398-0.059,10.697-1.447,15.432-4.04c4.462-2.272,8.089-5.899,10.361-10.361c2.57-4.978,3.189-10.737,1.735-16.148
		c-0.648-2.56-1.886-4.932-3.616-6.927c-1.73-1.995-3.902-3.557-6.344-4.562c-2.731-1.292-5.692-2.027-8.711-2.159
		c-2.778-0.239-5.574-0.211-8.347,0.085c-5.84,1.087-11.249,3.818-15.589,7.874c-4.613,4.152-8.425,9.115-11.246,14.643
		c-3.254,6.134-5.266,12.85-5.921,19.763c-0.387,3.952-0.062,7.942,0.959,11.78c1.256,5.252,4.417,9.852,8.869,12.909
		c4.628,3.005,9.989,4.687,15.505,4.865c3.844,0.115,7.692-0.043,11.513-0.473c3.812-0.434,7.521-1.518,10.967-3.203
		c5.677-2.595,10.795-6.271,15.068-10.822c1.335-1.395,2.608-2.863,3.749-4.137c1.092,2.657,2.075,5.411,3.324,8.031
		c1.508,3.406,4.215,6.139,7.607,7.679c3.284,1.433,6.743,2.424,10.288,2.948c0.915,0.238,1.874,0.246,2.793,0.024
		c0.919-0.222,1.768-0.668,2.473-1.298c2.341-2.305,4.78-4.525,7.061-6.891c1.277-1.413,2.479-2.891,3.603-4.428
		c1.662-2.123,3.3-4.283,5.035-6.539c0.194,1.104,0.327,2.038,0.534,2.96c1.08,4.695,3.082,8.771,7.267,11.525
		c2.842,1.746,5.941,3.031,9.184,3.809c5.423,1.602,11.25,1.113,16.33-1.371c5.6-2.802,10.507-6.808,14.377-11.732
		c3.103-3.656,5.998-7.484,8.676-11.465c4.062-6.236,7.897-12.653,11.61-19.12c1.887-3.29,3.725-6.609,5.548-9.935
		c1.492-2.715,5.48-7.502,5.722-10.555C358.197,239.785,358.083,239.092,357.804,238.459z M197.018,262.225
		c1.25-3.417,3.135-6.565,5.557-9.281c1.457-1.825,3.473-3.12,5.738-3.688c0.751-0.123,1.522-0.055,2.24,0.2
		c0.717,0.254,1.359,0.686,1.865,1.255c0.506,0.569,0.86,1.257,1.029,1.999c0.169,0.743,0.147,1.516-0.063,2.248
		c-1.735,7.376-6.624,11.55-13.734,13.369c-1.552,0.261-3.121,0.411-4.695,0.449C195.708,266.35,196.29,264.263,197.018,262.225z"/>
</g>
</svg>
